<svg xmlns="http://www.w3.org/2000/svg"  width="66.145836mm" height="66.145836mm" viewBox="0 0 66.145836 66.145836" version="1.1" >
  <linearGradient id="linearGradient901" x1="-25.272568" y1="207.52057" x2="-25.272568" y2="152.9982" gradientUnits="userSpaceOnUse">
    <stop style="stop-color:#0cbd2a;" offset="0"/>
    <stop style="stop-color:#5bf675;" offset="1"/>
  </linearGradient>
  <g  transform="translate(59.483067,-145.8456)">
    <rect ry="14.567832" rx="14.567832" x="-59.483067" y="145.8456" width="66.145836" height="66.145836" style="fill:url(#linearGradient901);"/>
    <path d="M -26.410149,157.29606 a 24.278298,20.222157 0 0 0 -24.278105,20.22202 24.278298,20.222157 0 0 0 11.79463,17.31574 27.365264,20.222157 0 0 1 -4.245218,5.94228 23.85735,20.222157 0 0 0 9.86038,-3.87367 24.278298,20.222157 0 0 0 6.868313,0.83768 24.278298,20.222157 0 0 0 24.2781059,-20.22203 24.278298,20.222157 0 0 0 -24.2781059,-20.22202 z" style="fill:#ffffff;"/>
  </g>
</svg>
